NFP 09-09-14.ufo
<glyph name="plus" format="1">
  <advance width="565"/>
  <unicode hex="002B"/>
  <outline>
    <contour>
      <point x="241" y="451" type="line"/>
      <point x="323" y="451" type="line"/>
      <point x="323" y="97" type="line"/>
      <point x="241" y="97" type="line"/>
    </contour>
    <contour>
      <point x="105" y="315" type="line"/>
      <point x="459" y="315" type="line"/>
      <point x="459" y="233" type="line"/>
      <point x="105" y="233" type="line"/>
    </contour>
  </outline>
</glyph>
<glyph name="hyphen" format="1">
  <advance width="565"/>
  <unicode hex="002D"/>
  <outline>
    <contour>
      <point x="105" y="315" type="line"/>
      <point x="459" y="315" type="line"/>
      <point x="459" y="233" type="line"/>
      <point x="105" y="233" type="line"/>
    </contour>
  </outline>
</glyph>
<glyph name="E" format="1">
  <advance width="703"/>
  <unicode hex="0045"/>
  <outline>
    <contour>
      <point x="543" y="292" type="line"/>
      <point x="79" y="292" type="line"/>
      <point x="79" y="396" type="line"/>
      <point x="543" y="396" type="line"/>
    </contour>
    <contour>
      <point x="79" y="0" type="line"/>
      <point x="79" y="104" type="line"/>
      <point x="623" y="104" type="line"/>
      <point x="623" y="0" type="line"/>
    </contour>
    <contour>
      <point x="603" y="582" type="line"/>
      <point x="79" y="582" type="line"/>
      <point x="79" y="686" type="line"/>
      <point x="603" y="686" type="line"/>
    </contour>
    <contour>
      <point x="79" y="0" type="line"/>
      <point x="79" y="685" type="line"/>
      <point x="188" y="685" type="line"/>
      <point x="188" y="0" type="line"/>
    </contour>
  </outline>
</glyph>
<glyph name="F" format="1">
  <advance width="681"/>
  <unicode hex="0046"/>
  <outline>
    <contour>
      <point x="523" y="292" type="line"/>
      <point x="79" y="292" type="line"/>
      <point x="79" y="396" type="line"/>
      <point x="523" y="396" type="line"/>
    </contour>
    <contour>
      <point x="79" y="0" type="curve"/>
      <point x="79" y="104" type="line"/>
      <point x="79" y="104"/>
      <point x="79" y="0"/>
    </contour>
    <contour>
      <point x="593" y="582" type="line"/>
      <point x="79" y="582" type="line"/>
      <point x="79" y="686" type="line"/>
      <point x="593" y="686" type="line"/>
    </contour>
    <contour>
      <point x="79" y="0" type="line"/>
      <point x="79" y="685" type="line"/>
      <point x="188" y="685" type="line"/>
      <point x="188" y="0" type="line"/>
    </contour>
  </outline>
</glyph>
<glyph name="H" format="1">
  <advance width="704"/>
  <unicode hex="0048"/>
  <outline>
    <contour>
      <point x="624" y="300" type="line"/>
      <point x="80" y="300" type="line"/>
      <point x="80" y="404" type="line"/>
      <point x="624" y="404" type="line"/>
    </contour>
    <contour>
      <point x="515" y="0" type="line"/>
      <point x="515" y="685" type="line"/>
      <point x="624" y="685" type="line"/>
      <point x="624" y="0" type="line"/>
    </contour>
    <contour>
      <point x="80" y="0" type="line"/>
      <point x="80" y="685" type="line"/>
      <point x="189" y="685" type="line"/>
      <point x="189" y="0" type="line"/>
    </contour>
  </outline>
</glyph>
<glyph name="I" format="1">
  <advance width="296"/>
  <unicode hex="0049"/>
  <outline>
    <contour>
      <point x="79" y="0" type="line"/>
      <point x="79" y="685" type="line"/>
      <point x="188" y="685" type="line"/>
      <point x="188" y="0" type="line"/>
    </contour>
  </outline>
</glyph>
<glyph name="L" format="1">
  <advance width="558"/>
  <unicode hex="004C"/>
  <outline>
    <contour>
      <point x="502" y="0" type="line"/>
      <point x="79" y="0" type="line"/>
      <point x="79" y="104" type="line"/>
      <point x="502" y="104" type="line"/>
    </contour>
    <contour>
      <point x="79" y="0" type="line"/>
      <point x="79" y="685" type="line"/>
      <point x="188" y="685" type="line"/>
      <point x="188" y="0" type="line"/>
    </contour>
  </outline>
</glyph>
<glyph name="M" format="1">
  <advance width="859"/>
  <unicode hex="004D"/>
  <outline>
    <contour>
      <point x="478" y="0" type="line"/>
      <point x="379" y="0" type="line"/>
      <point x="594" y="685" type="line"/>
      <point x="703" y="685" type="line"/>
    </contour>
    <contour>
      <point x="379" y="0" type="line"/>
      <point x="155" y="685" type="line"/>
      <point x="264" y="685" type="line"/>
      <point x="478" y="0" type="line"/>
    </contour>
    <contour>
      <point x="660" y="0" type="line"/>
      <point x="660" y="685" type="line"/>
      <point x="769" y="685" type="line"/>
      <point x="769" y="0" type="line"/>
    </contour>
    <contour>
      <point x="90" y="0" type="line"/>
      <point x="90" y="685" type="line"/>
      <point x="199" y="685" type="line"/>
      <point x="199" y="0" type="line"/>
    </contour>
  </outline>
</glyph>
<glyph name="N" format="1">
  <advance width="724"/>
  <unicode hex="004E"/>
  <outline>
    <contour>
      <point x="514" y="0" type="line"/>
      <point x="90" y="685" type="line"/>
      <point x="217" y="685" type="line"/>
      <point x="634" y="0" type="line"/>
    </contour>
    <contour>
      <point x="525" y="0" type="line"/>
      <point x="525" y="685" type="line"/>
      <point x="634" y="685" type="line"/>
      <point x="634" y="0" type="line"/>
    </contour>
    <contour>
      <point x="90" y="0" type="line"/>
      <point x="90" y="685" type="line"/>
      <point x="199" y="685" type="line"/>
      <point x="199" y="0" type="line"/>
    </contour>
  </outline>
</glyph>
<glyph name="O" format="1">
  <advance width="778"/>
  <unicode hex="004F"/>
  <outline>
    <contour>
      <point x="389" y="602" type="curve" smooth="yes"/>
      <point x="252" y="602"/>
      <point x="172" y="470"/>
      <point x="172" y="337" type="curve" smooth="yes"/>
      <point x="172" y="204"/>
      <point x="233" y="83"/>
      <point x="389" y="83" type="curve" smooth="yes"/>
      <point x="545" y="83"/>
      <point x="606" y="204"/>
      <point x="606" y="337" type="curve" smooth="yes"/>
      <point x="606" y="470"/>
      <point x="526" y="602"/>
    </contour>
    <contour>
      <point x="389" y="695" type="curve" smooth="yes"/>
      <point x="607" y="695"/>
      <point x="723" y="531"/>
      <point x="723" y="337" type="curve" smooth="yes"/>
      <point x="723" y="134"/>
      <point x="599" y="-10"/>
      <point x="389" y="-10" type="curve" smooth="yes"/>
      <point x="179" y="-10"/>
      <point x="55" y="134"/>
      <point x="55" y="337" type="curve" smooth="yes"/>
      <point x="55" y="540"/>
      <point x="171" y="695"/>
    </contour>
  </outline>
</glyph>
<glyph name="P" format="1">
  <advance width="572"/>
  <unicode hex="0050"/>
  <outline>
    <contour>
      <point x="86" y="0" type="line"/>
      <point x="86" y="685" type="line"/>
      <point x="188" y="685" type="line"/>
      <point x="188" y="0" type="line"/>
    </contour>
    <contour>
      <point x="450" y="484" type="curve"/>
      <point x="450" y="554"/>
      <point x="401" y="594"/>
      <point x="325" y="594" type="curve" smooth="yes"/>
      <point x="165" y="594" type="line"/>
      <point x="167" y="685" type="line"/>
      <point x="317" y="685" type="line" smooth="yes"/>
      <point x="479" y="685"/>
      <point x="550" y="582"/>
      <point x="550" y="484" type="curve"/>
      <point x="550" y="386"/>
      <point x="477" y="277"/>
      <point x="315" y="277" type="curve" smooth="yes"/>
      <point x="165" y="277" type="line"/>
      <point x="167" y="372" type="line"/>
      <point x="327" y="372" type="line" smooth="yes"/>
      <point x="403" y="372"/>
      <point x="450" y="414"/>
    </contour>
  </outline>
</glyph>
<glyph name="underscore" format="1">
  <advance width="565"/>
  <unicode hex="005F"/>
  <outline>
    <contour>
      <point x="0" y="0" type="line"/>
      <point x="565" y="0" type="line"/>
      <point x="565" y="-42" type="line"/>
      <point x="0" y="-42" type="line"/>
    </contour>
  </outline>
</glyph>
<glyph name="b" format="1">
  <advance width="570"/>
  <unicode hex="0062"/>
  <outline>
    <contour>
      <point x="172" y="241" type="line"/>
      <point x="172" y="131"/>
      <point x="231" y="73"/>
      <point x="298" y="73" type="curve" smooth="yes"/>
      <point x="375" y="73"/>
      <point x="428" y="139"/>
      <point x="428" y="252" type="curve" smooth="yes"/>
      <point x="428" y="365"/>
      <point x="374" y="426"/>
      <point x="299" y="426" type="curve" smooth="yes"/>
      <point x="218" y="426"/>
      <point x="172" y="352"/>
      <point x="172" y="242" type="curve"/>
      <point x="93" y="285" type="line"/>
      <point x="106" y="417"/>
      <point x="209" y="510"/>
      <point x="316" y="510" type="curve"/>
      <point x="418" y="510"/>
      <point x="532" y="435"/>
      <point x="532" y="252" type="curve" smooth="yes"/>
      <point x="532" y="69"/>
      <point x="417" y="-10"/>
      <point x="306" y="-10" type="curve"/>
      <point x="195" y="-10"/>
      <point x="92" y="81"/>
      <point x="92" y="222" type="curve"/>
    </contour>
    <component base="l" xOffset="15"/>
  </outline>
</glyph>
<glyph name="d" format="1">
  <advance width="570"/>
  <unicode hex="0064"/>
  <outline>
    <contour>
      <point x="398" y="259" type="line"/>
      <point x="398" y="369"/>
      <point x="339" y="427"/>
      <point x="272" y="427" type="curve" smooth="yes"/>
      <point x="195" y="427"/>
      <point x="142" y="361"/>
      <point x="142" y="248" type="curve" smooth="yes"/>
      <point x="142" y="135"/>
      <point x="196" y="74"/>
      <point x="271" y="74" type="curve" smooth="yes"/>
      <point x="352" y="74"/>
      <point x="398" y="148"/>
      <point x="398" y="258" type="curve"/>
      <point x="477" y="215" type="line"/>
      <point x="464" y="83"/>
      <point x="361" y="-10"/>
      <point x="254" y="-10" type="curve"/>
      <point x="152" y="-10"/>
      <point x="38" y="65"/>
      <point x="38" y="248" type="curve" smooth="yes"/>
      <point x="38" y="431"/>
      <point x="153" y="510"/>
      <point x="264" y="510" type="curve"/>
      <point x="375" y="510"/>
      <point x="478" y="419"/>
      <point x="478" y="278" type="curve"/>
    </contour>
    <component base="l" xOffset="343"/>
  </outline>
</glyph>
<glyph name="f" format="1">
  <advance width="325"/>
  <unicode hex="0066"/>
  <outline>
    <contour>
      <point x="209" y="0" type="line"/>
      <point x="107" y="0" type="line"/>
      <point x="107" y="565" type="line" smooth="yes"/>
      <point x="107" y="652"/>
      <point x="171" y="716"/>
      <point x="307" y="676" type="curve"/>
      <point x="302" y="579" type="line"/>
      <point x="248" y="600"/>
      <point x="209" y="581"/>
      <point x="209" y="539" type="curve" smooth="yes"/>
    </contour>
    <contour>
      <point x="23" y="418" type="line"/>
      <point x="23" y="500" type="line"/>
      <point x="307" y="500" type="line"/>
      <point x="307" y="418" type="line"/>
    </contour>
  </outline>
</glyph>
<glyph name="k" format="1">
  <advance width="540"/>
  <unicode hex="006B"/>
  <outline>
    <contour>
      <point x="97" y="164" type="line"/>
      <point x="377.0" y="500.0" type="line"/>
      <point x="499.0" y="500.0" type="line"/>
      <point x="154" y="101" type="line"/>
    </contour>
    <contour>
      <point x="421.0" y="0.0" type="line"/>
      <point x="233.0" y="275.0" type="line"/>
      <point x="296.0" y="345.0" type="line"/>
      <point x="533.0" y="0.0" type="line"/>
    </contour>
    <component base="l" xOffset="27" yOffset="2"/>
  </outline>
</glyph>
<glyph name="l" format="1">
  <advance width="212"/>
  <unicode hex="006C"/>
  <outline>
    <contour>
      <point x="55" y="0" type="line"/>
      <point x="55" y="685" type="line"/>
      <point x="157" y="685" type="line"/>
      <point x="157" y="0" type="line"/>
    </contour>
  </outline>
</glyph>
<glyph name="o" format="1">
  <advance width="564"/>
  <unicode hex="006F"/>
  <outline>
    <contour>
      <point x="282" y="77" type="curve"/>
      <point x="372" y="77"/>
      <point x="422" y="146"/>
      <point x="422" y="249" type="curve" smooth="yes"/>
      <point x="422" y="352"/>
      <point x="372" y="422"/>
      <point x="282" y="422" type="curve"/>
      <point x="192" y="422"/>
      <point x="142" y="352"/>
      <point x="142" y="249" type="curve" smooth="yes"/>
      <point x="142" y="146"/>
      <point x="192" y="77"/>
    </contour>
    <contour>
      <point x="282" y="-10" type="curve" smooth="yes"/>
      <point x="145" y="-10"/>
      <point x="30" y="88"/>
      <point x="30" y="249" type="curve" smooth="yes"/>
      <point x="30" y="410"/>
      <point x="150" y="510"/>
      <point x="282" y="510" type="curve" smooth="yes"/>
      <point x="414" y="510"/>
      <point x="534" y="410"/>
      <point x="534" y="249" type="curve" smooth="yes"/>
      <point x="534" y="88"/>
      <point x="419" y="-10"/>
    </contour>
  </outline>
</glyph>
<glyph name="p" format="1">
  <advance width="570"/>
  <unicode hex="0070"/>
  <outline>
    <contour>
      <point x="172" y="241" type="line"/>
      <point x="172" y="131"/>
      <point x="231" y="73"/>
      <point x="298" y="73" type="curve" smooth="yes"/>
      <point x="375" y="73"/>
      <point x="428" y="139"/>
      <point x="428" y="252" type="curve" smooth="yes"/>
      <point x="428" y="365"/>
      <point x="374" y="426"/>
      <point x="299" y="426" type="curve" smooth="yes"/>
      <point x="218" y="426"/>
      <point x="172" y="352"/>
      <point x="172" y="242" type="curve"/>
      <point x="93" y="285" type="line"/>
      <point x="106" y="417"/>
      <point x="209" y="510"/>
      <point x="316" y="510" type="curve"/>
      <point x="418" y="510"/>
      <point x="532" y="435"/>
      <point x="532" y="252" type="curve" smooth="yes"/>
      <point x="532" y="69"/>
      <point x="417" y="-10"/>
      <point x="306" y="-10" type="curve"/>
      <point x="195" y="-10"/>
      <point x="92" y="81"/>
      <point x="92" y="222" type="curve"/>
    </contour>
    <component base="l" xOffset="15" yOffset="-185"/>
  </outline>
</glyph>
<glyph name="q" format="1">
  <advance width="570"/>
  <unicode hex="0071"/>
  <outline>
    <contour>
      <point x="398" y="259" type="line"/>
      <point x="398" y="369"/>
      <point x="339" y="427"/>
      <point x="272" y="427" type="curve" smooth="yes"/>
      <point x="195" y="427"/>
      <point x="142" y="361"/>
      <point x="142" y="248" type="curve" smooth="yes"/>
      <point x="142" y="135"/>
      <point x="196" y="74"/>
      <point x="271" y="74" type="curve" smooth="yes"/>
      <point x="352" y="74"/>
      <point x="398" y="148"/>
      <point x="398" y="258" type="curve"/>
      <point x="477" y="215" type="line"/>
      <point x="464" y="83"/>
      <point x="361" y="-10"/>
      <point x="254" y="-10" type="curve"/>
      <point x="152" y="-10"/>
      <point x="38" y="65"/>
      <point x="38" y="248" type="curve" smooth="yes"/>
      <point x="38" y="431"/>
      <point x="153" y="510"/>
      <point x="264" y="510" type="curve"/>
      <point x="375" y="510"/>
      <point x="478" y="419"/>
      <point x="478" y="278" type="curve"/>
    </contour>
    <component base="l" xOffset="343" yOffset="-185"/>
  </outline>
</glyph>
<glyph name="r" format="1">
  <advance width="350"/>
  <unicode hex="0072"/>
  <outline>
    <contour>
      <point x="55" y="0" type="line"/>
      <point x="55" y="500" type="line"/>
      <point x="157" y="500" type="line"/>
      <point x="157" y="0" type="line"/>
    </contour>
    <contour>
      <point x="311" y="371" type="line"/>
      <point x="294" y="388"/>
      <point x="273" y="395"/>
      <point x="247" y="395" type="curve" smooth="yes"/>
      <point x="199" y="395"/>
      <point x="157" y="352"/>
      <point x="157" y="284" type="curve"/>
      <point x="118" y="284" type="line"/>
      <point x="118" y="416"/>
      <point x="202" y="510"/>
      <point x="274" y="510" type="curve"/>
      <point x="304" y="510"/>
      <point x="335" y="492"/>
      <point x="350" y="471" type="curve"/>
    </contour>
  </outline>
</glyph>
<glyph name="s" format="1">
  <advance width="491"/>
  <unicode hex="0073"/>
  <outline>
    <contour>
      <point x="376" y="356" type="line"/>
      <point x="349" y="398"/>
      <point x="311" y="419"/>
      <point x="246" y="419" type="curve" smooth="yes"/>
      <point x="192.0" y="419.0"/>
      <point x="158.0" y="398.763636364"/>
      <point x="158" y="366" type="curve" smooth="yes"/>
      <point x="158.0" y="339.490196078"/>
      <point x="172.0" y="320.24"/>
      <point x="201" y="314" type="curve" smooth="yes"/>
      <point x="303" y="292" type="line" smooth="yes"/>
      <point x="373.0" y="277.202702703"/>
      <point x="455.0" y="238.290409121"/>
      <point x="455" y="146" type="curve"/>
      <point x="455" y="67"/>
      <point x="370" y="-5"/>
      <point x="255" y="-5" type="curve" smooth="yes"/>
      <point x="162" y="-5"/>
      <point x="66" y="40"/>
      <point x="39" y="107" type="curve"/>
      <point x="112" y="163" type="line"/>
      <point x="135" y="117"/>
      <point x="192" y="81"/>
      <point x="258" y="81" type="curve"/>
      <point x="311.0" y="81.0"/>
      <point x="354.0" y="97.4237288136"/>
      <point x="354" y="138" type="curve"/>
      <point x="354.0" y="174.882352941"/>
      <point x="328.0" y="197.205882353"/>
      <point x="291" y="204" type="curve" smooth="yes"/>
      <point x="185" y="227" type="line" smooth="yes"/>
      <point x="126.0" y="240.188405797"/>
      <point x="66.0" y="279.753623188"/>
      <point x="66" y="367" type="curve"/>
      <point x="66" y="445"/>
      <point x="142" y="505"/>
      <point x="246" y="505" type="curve" smooth="yes"/>
      <point x="344" y="505"/>
      <point x="406" y="471"/>
      <point x="442" y="412" type="curve"/>
    </contour>
  </outline>
</glyph>
<glyph name="t" format="1">
  <advance width="332"/>
  <unicode hex="0074"/>
  <outline>
    <contour>
      <point x="201" y="612" type="line"/>
      <point x="201" y="144" type="line" smooth="yes"/>
      <point x="201" y="105"/>
      <point x="243" y="83"/>
      <point x="297" y="104" type="curve"/>
      <point x="302" y="6" type="line"/>
      <point x="170" y="-37"/>
      <point x="99" y="22"/>
      <point x="99" y="109" type="curve" smooth="yes"/>
      <point x="99" y="612" type="line"/>
    </contour>
    <contour>
      <point x="15" y="500" type="line"/>
      <point x="299" y="500" type="line"/>
      <point x="299" y="418" type="line"/>
      <point x="15" y="418" type="line"/>
    </contour>
  </outline>
</glyph>
<glyph name="u" format="1">
  <advance width="530"/>
  <unicode hex="0075"/>
  <outline>
    <contour>
      <point x="475" y="500" type="line"/>
      <point x="475" y="0" type="line"/>
      <point x="373" y="0" type="line"/>
      <point x="373" y="500" type="line"/>
    </contour>
    <contour>
      <point x="157" y="500" type="line"/>
      <point x="157" y="167" type="line" smooth="yes"/>
      <point x="157" y="122"/>
      <point x="187" y="85"/>
      <point x="245" y="85" type="curve" smooth="yes"/>
      <point x="310" y="85"/>
      <point x="373" y="128"/>
      <point x="373" y="216" type="curve"/>
      <point x="419" y="216" type="line"/>
      <point x="419" y="60"/>
      <point x="314" y="-10"/>
      <point x="227" y="-10" type="curve"/>
      <point x="121" y="-10"/>
      <point x="55" y="62"/>
      <point x="55" y="141" type="curve" smooth="yes"/>
      <point x="55" y="500" type="line"/>
    </contour>
  </outline>
</glyph>
<glyph name="v" format="1">
  <advance width="502"/>
  <unicode hex="0076"/>
  <outline>
    <contour>
      <point x="303" y="0" type="line"/>
      <point x="201" y="0" type="line"/>
      <point x="375" y="500" type="line"/>
      <point x="480" y="500" type="line"/>
    </contour>
    <contour>
      <point x="200" y="0" type="line"/>
      <point x="23" y="500" type="line"/>
      <point x="128" y="500" type="line"/>
      <point x="302" y="0" type="line"/>
    </contour>
  </outline>
</glyph>
<glyph name="w" format="1">
  <advance width="756"/>
  <unicode hex="0077"/>
  <outline>
    <contour>
      <point x="278" y="0" type="line"/>
      <point x="181" y="0" type="line"/>
      <point x="332" y="500" type="line"/>
      <point x="419" y="500" type="line"/>
    </contour>
    <contour>
      <point x="176" y="0" type="line"/>
      <point x="28" y="500" type="line"/>
      <point x="125" y="500" type="line"/>
      <point x="273" y="0" type="line"/>
    </contour>
    <contour>
      <point x="589" y="0" type="line"/>
      <point x="492" y="0" type="line"/>
      <point x="631" y="500" type="line"/>
      <point x="728" y="500" type="line"/>
    </contour>
    <contour>
      <point x="487" y="0" type="line"/>
      <point x="337" y="500" type="line"/>
      <point x="424" y="500" type="line"/>
      <point x="584" y="0" type="line"/>
    </contour>
  </outline>
</glyph>
<glyph name="x" format="1">
  <advance width="502"/>
  <unicode hex="0078"/>
  <outline>
    <contour>
      <point x="134" y="0" type="line"/>
      <point x="16" y="0" type="line"/>
      <point x="354" y="500" type="line"/>
      <point x="472" y="500" type="line"/>
    </contour>
    <contour>
      <point x="366" y="0" type="line"/>
      <point x="18" y="500" type="line"/>
      <point x="137" y="500" type="line"/>
      <point x="485" y="0" type="line"/>
    </contour>
  </outline>
</glyph>
<glyph name="y" format="1">
  <advance width="488"/>
  <unicode hex="0079"/>
  <outline>
    <contour>
      <point x="288" y="0" type="line" smooth="yes"/>
      <point x="267" y="-63"/>
      <point x="220" y="-166"/>
      <point x="100" y="-166" type="curve" smooth="yes"/>
      <point x="75" y="-166"/>
      <point x="47" y="-160"/>
      <point x="21" y="-140" type="curve"/>
      <point x="46" y="-48" type="line"/>
      <point x="67" y="-56"/>
      <point x="86" y="-60"/>
      <point x="102" y="-60" type="curve" smooth="yes"/>
      <point x="155" y="-60"/>
      <point x="178" y="-21"/>
      <point x="185" y="0" type="curve" smooth="yes"/>
      <point x="352" y="500" type="line"/>
      <point x="460" y="500" type="line"/>
    </contour>
    <contour>
      <point x="185" y="0" type="line"/>
      <point x="10" y="500" type="line"/>
      <point x="112" y="500" type="line"/>
      <point x="283" y="0" type="line"/>
    </contour>
  </outline>
</glyph>
<glyph name="acute" format="1">
  <advance width="532"/>
  <unicode hex="00B4"/>
  <outline>
    <contour>
      <point x="241" y="685" type="line"/>
      <point x="165" y="555" type="line"/>
      <point x="242" y="555" type="line"/>
      <point x="361" y="685" type="line"/>
    </contour>
  </outline>
</glyph>
<glyph name="dotlessi" format="1">
  <advance width="212"/>
  <unicode hex="0131"/>
  <outline>
    <contour>
      <point x="55" y="0" type="line"/>
      <point x="55" y="500" type="line"/>
      <point x="157" y="500" type="line"/>
      <point x="157" y="0" type="line"/>
    </contour>
  </outline>
</glyph>
<glyph name="v_a" format="1">
  <advance width="796"/>
  <unicode hex="0905"/>
  <outline>
    <contour>
      <point x="259" y="384" type="line"/>
      <point x="259" y="384"/>
      <point x="463" y="319"/>
      <point x="615" y="404" type="curve"/>
      <point x="653" y="330" type="line"/>
      <point x="471" y="231"/>
      <point x="237" y="328"/>
      <point x="237" y="329" type="curve"/>
    </contour>
    <contour>
      <point x="206" y="310" type="curve"/>
      <point x="206" y="389" type="line"/>
      <point x="351" y="389"/>
      <point x="459" y="318"/>
      <point x="459" y="194" type="curve"/>
      <point x="459" y="54"/>
      <point x="366" y="-6"/>
      <point x="242" y="-5" type="curve" smooth="yes"/>
      <point x="122" y="-4"/>
      <point x="54" y="65"/>
      <point x="36" y="131" type="curve"/>
      <point x="115" y="166" type="line"/>
      <point x="133" y="117"/>
      <point x="186" y="78"/>
      <point x="242" y="77" type="curve" smooth="yes"/>
      <point x="324" y="77"/>
      <point x="364" y="126"/>
      <point x="364" y="186" type="curve" smooth="yes"/>
      <point x="364" y="258"/>
      <point x="312" y="310"/>
    </contour>
    <contour>
      <point x="206" y="393" type="line"/>
      <point x="292" y="393"/>
      <point x="333" y="434"/>
      <point x="333" y="491" type="curve" smooth="yes"/>
      <point x="333" y="555"/>
      <point x="298" y="608"/>
      <point x="225" y="608" type="curve" smooth="yes"/>
      <point x="176" y="607"/>
      <point x="131" y="571"/>
      <point x="115" y="519" type="curve"/>
      <point x="39" y="552" type="line"/>
      <point x="60" y="641"/>
      <point x="152" y="689"/>
      <point x="225" y="690" type="curve" smooth="yes"/>
      <point x="344" y="692"/>
      <point x="427" y="622"/>
      <point x="427" y="491" type="curve"/>
      <point x="427" y="375"/>
      <point x="332" y="310"/>
      <point x="206" y="310" type="curve"/>
    </contour>
    <component base="kana" xOffset="512"/>
  </outline>
</glyph>
<glyph name="v_u" format="1">
  <advance width="535"/>
  <unicode hex="0909"/>
  <outline>
    <contour>
      <point x="236" y="393" type="line"/>
      <point x="322" y="393"/>
      <point x="363" y="434"/>
      <point x="363" y="491" type="curve" smooth="yes"/>
      <point x="363" y="552"/>
      <point x="328" y="603"/>
      <point x="255" y="603" type="curve"/>
      <point x="255" y="685" type="line"/>
      <point x="374" y="687"/>
      <point x="457" y="619"/>
      <point x="457" y="491" type="curve"/>
      <point x="457" y="375"/>
      <point x="362" y="310"/>
      <point x="236" y="310" type="curve"/>
    </contour>
    <contour>
      <point x="236" y="310" type="curve"/>
      <point x="236" y="389" type="line"/>
      <point x="381" y="389"/>
      <point x="489" y="318"/>
      <point x="489" y="194" type="curve"/>
      <point x="489" y="54"/>
      <point x="396" y="-6"/>
      <point x="272" y="-5" type="curve" smooth="yes"/>
      <point x="152" y="-4"/>
      <point x="84" y="65"/>
      <point x="66" y="131" type="curve"/>
      <point x="145" y="166" type="line"/>
      <point x="163" y="117"/>
      <point x="216" y="78"/>
      <point x="272" y="77" type="curve" smooth="yes"/>
      <point x="354" y="77"/>
      <point x="394" y="126"/>
      <point x="394" y="186" type="curve" smooth="yes"/>
      <point x="394" y="258"/>
      <point x="342" y="310"/>
    </contour>
    <component base="component_6" xOffset="143"/>
    <component base="component_6" xOffset="-108"/>
  </outline>
</glyph>
<glyph name="v_uu" format="1">
  <advance width="825"/>
  <unicode hex="090A"/>
  <outline>
    <contour>
      <point x="539" y="96" type="line"/>
      <point x="556" y="91"/>
      <point x="581" y="88"/>
      <point x="595" y="88" type="curve" smooth="yes"/>
      <point x="665" y="88"/>
      <point x="700" y="133"/>
      <point x="700" y="198" type="curve"/>
      <point x="700" y="253"/>
      <point x="660" y="297"/>
      <point x="596" y="297" type="curve"/>
      <point x="545" y="296"/>
      <point x="489" y="258"/>
      <point x="489" y="188" type="curve"/>
      <point x="398" y="195" type="line"/>
      <point x="398" y="302"/>
      <point x="488" y="379"/>
      <point x="598" y="379" type="curve"/>
      <point x="704" y="379"/>
      <point x="795" y="317"/>
      <point x="795" y="195" type="curve"/>
      <point x="795" y="69"/>
      <point x="723" y="-1"/>
      <point x="598" y="-1" type="curve" smooth="yes"/>
      <point x="571" y="-1"/>
      <point x="536" y="4"/>
      <point x="504" y="18" type="curve"/>
    </contour>
    <component base="component_6" xOffset="433"/>
    <component base="v_u"/>
  </outline>
</glyph>
<glyph name="v_rhu" format="1">
  <advance width="874"/>
  <unicode hex="090B"/>
  <outline>
    <contour>
      <point x="445" y="401" type="line"/>
      <point x="566" y="294"/>
      <point x="669" y="361"/>
      <point x="669" y="450" type="curve"/>
      <point x="669" y="444"/>
      <point x="683" y="462"/>
      <point x="677" y="462" type="curve" smooth="yes"/>
      <point x="661" y="462"/>
      <point x="668" y="393"/>
      <point x="665" y="388" type="curve"/>
      <point x="579" y="444" type="line"/>
      <point x="587" y="492"/>
      <point x="633" y="544"/>
      <point x="688" y="544" type="curve"/>
      <point x="721" y="544"/>
      <point x="781" y="522"/>
      <point x="781" y="450" type="curve" smooth="yes"/>
      <point x="781" y="309"/>
      <point x="540" y="167"/>
      <point x="388" y="356" type="curve"/>
    </contour>
    <contour>
      <point x="639" y="505" type="line"/>
      <point x="754" y="422"/>
      <point x="862" y="370"/>
      <point x="862" y="245" type="curve" smooth="yes"/>
      <point x="862" y="87"/>
      <point x="715" y="4"/>
      <point x="564" y="41" type="curve"/>
      <point x="580" y="121" type="line"/>
      <point x="686" y="98"/>
      <point x="772" y="163"/>
      <point x="772" y="238" type="curve"/>
      <point x="772" y="336"/>
      <point x="670" y="380"/>
      <point x="579" y="444" type="curve"/>
    </contour>
    <contour>
      <point x="453" y="315" type="line"/>
      <point x="137" y="108" type="line"/>
      <point x="86" y="181" type="line"/>
      <point x="402" y="388" type="line"/>
    </contour>
    <component base="component_3" xOffset="-3" yOffset="-319"/>
    <component base="component_6" xOffset="293"/>
    <component base="component_6"/>
    <component base="component_6" xOffset="590"/>
    <component base="l" xOffset="327"/>
  </outline>
</glyph>
<glyph name="c_pa" format="1">
  <advance width="615"/>
  <unicode hex="092A"/>
  <outline>
    <contour>
      <point x="183" y="663" type="line"/>
      <point x="183" y="663"/>
      <point x="183" y="447"/>
      <point x="183" y="388" type="curve" smooth="yes"/>
      <point x="183" y="352"/>
      <point x="196" y="270"/>
      <point x="295" y="270" type="curve" smooth="yes"/>
      <point x="388" y="270"/>
      <point x="409" y="324"/>
      <point x="433" y="365" type="curve"/>
      <point x="503" y="321" type="line"/>
      <point x="465" y="260"/>
      <point x="431" y="188"/>
      <point x="295" y="188" type="curve" smooth="yes"/>
      <point x="126" y="188"/>
      <point x="101" y="326"/>
      <point x="101" y="388" type="curve"/>
      <point x="101" y="447"/>
      <point x="101" y="663"/>
      <point x="101" y="663" type="curve"/>
    </contour>
    <component base="component_6" xOffset="70"/>
    <component base="kana" xOffset="331"/>
    <component base="component_6" xOffset="-108"/>
  </outline>
</glyph>
<glyph name="c_pha" format="1">
  <advance width="892"/>
  <unicode hex="092B"/>
  <outline>
    <contour>
      <point x="603" y="237" type="line"/>
      <point x="610" y="236"/>
      <point x="618" y="236"/>
      <point x="623" y="236" type="curve" smooth="yes"/>
      <point x="693" y="236"/>
      <point x="728" y="281"/>
      <point x="728" y="346" type="curve"/>
      <point x="728" y="401"/>
      <point x="688" y="445"/>
      <point x="624" y="445" type="curve"/>
      <point x="573" y="444"/>
      <point x="517" y="406"/>
      <point x="517" y="336" type="curve"/>
      <point x="426" y="343" type="line"/>
      <point x="426" y="450"/>
      <point x="516" y="527"/>
      <point x="626" y="527" type="curve"/>
      <point x="732" y="527"/>
      <point x="823" y="465"/>
      <point x="823" y="343" type="curve"/>
      <point x="823" y="217"/>
      <point x="751" y="147"/>
      <point x="626" y="147" type="curve" smooth="yes"/>
      <point x="609" y="147"/>
      <point x="589" y="149"/>
      <point x="569" y="154" type="curve"/>
    </contour>
    <component base="c_pa"/>
    <component base="component_6" xOffset="500"/>
    <contour>
      <point x="538" y="0" type="move" name="DVAnchor0"/>
    </contour>
    <contour>
      <point x="487" y="660" type="move" name="DVAnchor3"/>
    </contour>
  </outline>
</glyph>
<glyph name="emdash" format="1">
  <advance width="776"/>
  <unicode hex="2014"/>
  <outline>
    <contour>
      <point x="0" y="315" type="line"/>
      <point x="776" y="315" type="line"/>
      <point x="776" y="233" type="line"/>
      <point x="0" y="233" type="line"/>
    </contour>
  </outline>
</glyph>
<glyph name="a.alt" format="1">
  <advance width="558"/>
  <outline>
    <contour>
      <point x="398" y="259" type="line"/>
      <point x="398" y="369"/>
      <point x="339" y="427"/>
      <point x="272" y="427" type="curve" smooth="yes"/>
      <point x="195" y="427"/>
      <point x="142" y="361"/>
      <point x="142" y="248" type="curve" smooth="yes"/>
      <point x="142" y="135"/>
      <point x="196" y="74"/>
      <point x="271" y="74" type="curve" smooth="yes"/>
      <point x="352" y="74"/>
      <point x="398" y="148"/>
      <point x="398" y="258" type="curve"/>
      <point x="477" y="215" type="line"/>
      <point x="464" y="83"/>
      <point x="361" y="-10"/>
      <point x="254" y="-10" type="curve"/>
      <point x="152" y="-10"/>
      <point x="38" y="65"/>
      <point x="38" y="248" type="curve" smooth="yes"/>
      <point x="38" y="431"/>
      <point x="153" y="510"/>
      <point x="264" y="510" type="curve"/>
      <point x="375" y="510"/>
      <point x="478" y="419"/>
      <point x="478" y="278" type="curve"/>
    </contour>
    <contour>
      <point x="398" y="0" type="line"/>
      <point x="398" y="500" type="line"/>
      <point x="500" y="500" type="line"/>
      <point x="500" y="0" type="line"/>
    </contour>
  </outline>
</glyph>
<glyph name="component_2" format="1">
  <advance width="501"/>
  <outline>
    <contour>
      <point x="398" y="685" type="line"/>
      <point x="355" y="784"/>
      <point x="315" y="870"/>
      <point x="183" y="870" type="curve" smooth="yes"/>
      <point x="132" y="870"/>
      <point x="92" y="858"/>
      <point x="50" y="836" type="curve"/>
      <point x="9" y="912" type="line"/>
      <point x="65" y="940"/>
      <point x="120" y="955"/>
      <point x="183" y="955" type="curve" smooth="yes"/>
      <point x="348" y="955"/>
      <point x="440" y="859"/>
      <point x="492" y="685" type="curve"/>
    </contour>
  </outline>
</glyph>
